# xmcd CD database file
#
# Track frame offsets:
#	150
#	34653
#	72121
#	105463
#	131701
#	169440
#	198526
#	225339
#	265355
#
# Disc length: 4218 seconds
#
# Revision: 1
# Processed by: cddbd v1.5.1PL0 Copyright (c) Steve Scherf et al.
# Submitted via: CDex 1.51
#
DISCID=7b107809
DTITLE=Solitudes - Guardians of Atlantis
DYEAR=1998
DGENRE=New Age
TTITLE0=Guardians of Atlantis
TTITLE1=Transcendence
TTITLE2=Halcyon
TTITLE3=Coral Coast
TTITLE4=Ethereal blue
TTITLE5=Setting sun
TTITLE6=Caribbean air
TTITLE7=Forever free
TTITLE8=DATA-TRACK
EXTD=YEAR: 1998
EXTT0=
EXTT1=
EXTT2=
EXTT3=
EXTT4=
EXTT5=
EXTT6=
EXTT7=
EXTT8=
PLAYORDER=
